<svg width="328" height="111" viewBox="0 0 328 111" fill="none" xmlns="http://www.w3.org/2000/svg">
<path d="M199.437 106.57C197.191 106.57 195.193 106.113 193.443 105.199C191.693 104.264 190.332 102.972 189.357 101.322C188.383 99.6714 187.896 97.7926 187.896 95.6851C187.896 93.5776 188.383 91.6988 189.357 90.0486C190.332 88.3984 191.693 87.116 193.443 86.2014C195.193 85.267 197.191 84.7998 199.437 84.7998C201.704 84.7998 203.712 85.267 205.462 86.2014C207.211 87.116 208.573 88.3984 209.547 90.0486C210.522 91.6988 211.009 93.5776 211.009 95.6851C211.009 97.7926 210.522 99.6714 209.547 101.322C208.573 102.972 207.211 104.264 205.462 105.199C203.712 106.113 201.704 106.57 199.437 106.57ZM195.173 95.6851C195.173 96.9575 195.57 98.0013 196.366 98.8165C197.161 99.6117 198.185 100.009 199.437 100.009C200.69 100.009 201.714 99.6117 202.509 98.8165C203.324 98.0013 203.732 96.9575 203.732 95.6851C203.732 94.4126 203.324 93.3788 202.509 92.5835C201.714 91.7684 200.69 91.3608 199.437 91.3608C198.185 91.3608 197.161 91.7684 196.366 92.5835C195.57 93.3788 195.173 94.4126 195.173 95.6851ZM217.861 91.7783H211.807V85.2471H231.132V91.7783H225.078V106.123H217.861V91.7783ZM230.646 99.4726H233.002C233.36 99.1147 233.638 98.6773 233.837 98.1604C234.036 97.6434 234.165 97.0072 234.225 96.2517L235.09 85.2471H252.059V99.4726H255.041V110.239H248.093V106.123H237.595V110.239H230.646V99.4726ZM244.931 99.8304V91.6888H241.681L241.263 96.878C241.164 98.0908 240.905 99.0749 240.488 99.8304H244.931ZM257.644 85.2471H264.861V90.9433H268.201C269.771 90.9433 271.163 91.2614 272.376 91.8976C273.609 92.5338 274.563 93.4285 275.239 94.5816C275.915 95.7149 276.253 97.037 276.253 98.5481C276.253 100.039 275.915 101.361 275.239 102.514C274.563 103.648 273.609 104.533 272.376 105.169C271.163 105.805 269.771 106.123 268.201 106.123H257.644V85.2471ZM266.889 100.457C267.604 100.457 268.151 100.298 268.529 99.9796C268.907 99.6416 269.095 99.1445 269.095 98.4884C269.095 97.2359 268.36 96.6096 266.889 96.6096H264.682V100.457H266.889ZM278.728 85.2471H285.945V106.123H278.728V85.2471ZM294.898 95.4763L288.725 85.2471H296.658L298.089 87.9013L299.729 90.7942H299.819L301.429 87.9013L302.89 85.2471H310.793L304.62 95.4465L311.211 106.123H302.92L301.25 103.111L299.819 100.487H299.729L296.598 106.123H288.367L294.898 95.4763Z" fill="white"/>
<path d="M192.315 60.6601H197.238L202.337 74.3359H197.375L196.769 72.6362H192.764L192.159 74.3359H187.235L192.315 60.6601ZM196.027 69.5103L194.816 65.7592H194.738L193.546 69.5103H196.027ZM203.633 60.6601H208.361V65.2513H208.771C209.357 65.2513 209.767 65.1666 210.002 64.9973C210.249 64.828 210.458 64.4893 210.627 63.9813L211.741 60.6601H216.82L214.847 65.935C214.56 66.6644 214.254 67.257 213.929 67.7129L217.289 74.3359H211.897L209.631 69.4712H208.361V74.3359H203.633V60.6601ZM221.739 64.9387H217.773V60.6601H230.433V64.9387H226.467V74.3359H221.739V64.9387ZM232.213 60.6601H236.863V64.7628L236.824 66.6188H236.882L241.22 60.6601H245.088V74.3359H240.438V70.1746L240.477 68.3381L240.399 68.3186L236.042 74.3359H232.213V60.6601ZM247.534 60.6601H255.016C256.423 60.6601 257.53 60.9857 258.338 61.6369C259.158 62.2881 259.568 63.1803 259.568 64.3135C259.568 64.9908 259.419 65.5964 259.119 66.1304C258.832 66.6644 258.416 67.0877 257.869 67.4003C258.507 67.6738 259.015 68.0971 259.393 68.6702C259.77 69.2303 259.959 69.875 259.959 70.6044C259.959 71.3338 259.764 71.985 259.373 72.5581C258.995 73.1181 258.455 73.5545 257.751 73.8671C257.048 74.1796 256.247 74.3359 255.348 74.3359H247.534V60.6601ZM254 71.1123C254.391 71.1123 254.691 71.0212 254.899 70.8388C255.12 70.6435 255.231 70.3764 255.231 70.0378C255.231 69.6861 255.12 69.4191 254.899 69.2368C254.691 69.0414 254.391 68.9437 254 68.9437H252.086V71.1123H254ZM253.746 65.9546C254.124 65.9546 254.417 65.8634 254.626 65.6811C254.834 65.4987 254.938 65.2382 254.938 64.8996C254.938 64.5609 254.834 64.3005 254.626 64.1181C254.417 63.9358 254.124 63.8446 253.746 63.8446H252.086V65.9546H253.746ZM269.584 69.5298H266.38V74.3359H261.652V60.6601H266.38V65.2317H269.584V60.6601H274.312V74.3359H269.584V69.5298ZM276.782 60.6601H281.51V64.3916H283.698C284.727 64.3916 285.639 64.6 286.433 65.0168C287.241 65.4336 287.866 66.0197 288.309 66.7751C288.751 67.5175 288.973 68.3837 288.973 69.3736C288.973 70.3504 288.751 71.2165 288.309 71.972C287.866 72.7144 287.241 73.294 286.433 73.7108C285.639 74.1275 284.727 74.3359 283.698 74.3359H276.782V60.6601ZM282.838 70.6239C283.307 70.6239 283.665 70.5197 283.913 70.3113C284.16 70.0899 284.284 69.7643 284.284 69.3345C284.284 68.5139 283.802 68.1036 282.838 68.1036H281.393V70.6239H282.838ZM290.594 60.6601H295.322V74.3359H290.594V60.6601ZM297.788 60.6601H302.438V64.7628L302.399 66.6188H302.457L306.794 60.6601H310.663V74.3359H306.013V70.1746L306.052 68.3381L305.974 68.3186L301.617 74.3359H297.788V60.6601ZM301.109 56.3815H303.551V56.5573C303.551 56.7787 303.616 56.9546 303.747 57.0848C303.877 57.202 304.053 57.2606 304.274 57.2606C304.509 57.2606 304.684 57.202 304.802 57.0848C304.932 56.9546 304.997 56.7787 304.997 56.5573V56.3815H307.459V56.6941C307.459 57.5928 307.192 58.2831 306.658 58.765C306.137 59.2469 305.342 59.4878 304.274 59.4878C303.258 59.4878 302.477 59.2469 301.93 58.765C301.383 58.27 301.109 57.5797 301.109 56.6941V56.3815Z" fill="white"/>
<path d="M188.576 9.33895H224.705V48.3672H211.212V21.605H202.069V48.3672H188.576V9.33895ZM231.753 9.33895H249.873C253.256 9.33895 256.192 9.95225 258.683 11.1789C261.21 12.4055 263.143 14.1524 264.481 16.4198C265.856 18.6871 266.544 21.3448 266.544 24.3927C266.544 27.4406 265.856 30.0983 264.481 32.3656C263.143 34.5958 261.229 36.3242 258.738 37.5508C256.248 38.7774 253.33 39.3907 249.985 39.3907H245.246V48.3672H231.753V9.33895ZM248.089 28.8531C249.688 28.8531 250.914 28.4814 251.769 27.738C252.624 26.9574 253.051 25.8795 253.051 24.5042C253.051 23.1289 252.624 22.0696 251.769 21.3262C250.914 20.5456 249.688 20.1553 248.089 20.1553H244.967V28.8531H248.089ZM290.743 49.2035C286.543 49.2035 282.808 48.3486 279.537 46.6388C276.266 44.8918 273.72 42.4758 271.898 39.3907C270.077 36.3056 269.166 32.7931 269.166 28.8531C269.166 24.9131 270.077 21.4005 271.898 18.3154C273.72 15.2304 276.266 12.8329 279.537 11.1231C282.808 9.37612 286.543 8.50264 290.743 8.50264C294.981 8.50264 298.735 9.37612 302.006 11.1231C305.277 12.8329 307.823 15.2304 309.644 18.3154C311.465 21.4005 312.376 24.9131 312.376 28.8531C312.376 32.7931 311.465 36.3056 309.644 39.3907C307.823 42.4758 305.277 44.8918 302.006 46.6388C298.735 48.3486 294.981 49.2035 290.743 49.2035ZM282.77 28.8531C282.77 31.2319 283.514 33.1833 285.001 34.7073C286.487 36.1941 288.402 36.9375 290.743 36.9375C293.085 36.9375 294.999 36.1941 296.486 34.7073C298.01 33.1833 298.772 31.2319 298.772 28.8531C298.772 26.4742 298.01 24.5414 296.486 23.0546C294.999 21.5306 293.085 20.7687 290.743 20.7687C288.402 20.7687 286.487 21.5306 285.001 23.0546C283.514 24.5414 282.77 26.4742 282.77 28.8531Z" fill="white"/>
<path fill-rule="evenodd" clip-rule="evenodd" d="M102.112 0.569336L119.824 42.5932L85.123 42.5859L102.112 0.569336Z" fill="white"/>
<path fill-rule="evenodd" clip-rule="evenodd" d="M48.5342 22.6827L87.0266 6.70135L64.1657 59.6322L48.5342 22.6827Z" fill="url(#paint0_linear_4171_2424)"/>
<path fill-rule="evenodd" clip-rule="evenodd" d="M124.973 53.6244L71.0703 76.3351L80.4832 53.4932L124.973 53.6244Z" fill="white"/>
<path d="M13.9956 88.1827L9.91619 94.9631H13.3022H13.3981H16.784L13.9956 88.1827ZM0.311523 101.044L12.0555 81.9637H14.5415H14.6374H17.1234L25.2379 101.044H19.2553L18.0234 98.0179H13.1177H13.0219H8.11624L6.30891 101.044H0.311523Z" fill="url(#paint1_linear_4171_2424)"/>
<path d="M40.1911 87.8541C40.0952 88.8092 39.6673 89.5018 38.8927 89.932C38.5092 90.1507 38.037 90.3184 37.4911 90.4423C36.9379 90.5662 36.3108 90.61 35.6027 90.5808L33.3453 90.5006L33.8617 85.1492L36.3182 85.0982C36.9821 85.0617 37.5649 85.1055 38.0665 85.2367C38.5682 85.3607 38.9886 85.5429 39.328 85.7762C39.9919 86.221 40.2796 86.9136 40.1911 87.8541ZM46.0114 87.7447C46.2106 85.6523 45.5172 84.165 43.9164 83.2828C42.1754 82.3277 40.8255 81.9559 38.6641 81.9559H28.1225L26.2783 101.036H32.3273L33.0429 93.6284L36.842 93.6794C38.2436 93.7158 39.4977 93.6065 40.5894 93.344C41.6812 93.0815 42.6181 92.717 43.3926 92.2504C44.9418 91.288 45.8122 89.7788 46.0114 87.7447Z" fill="url(#paint2_linear_4171_2424)"/>
<path d="M65.7811 96.7786C65.25 96.9172 64.5787 97.0557 63.9812 97.2015C62.5058 97.5587 61.0231 97.741 59.5256 97.741C57.2461 97.741 55.4683 97.1942 54.1847 96.0933C52.9011 95.0143 52.3479 93.5415 52.5249 91.6897C52.7241 89.5972 53.5503 87.986 54.9962 86.8486C56.4642 85.6967 58.36 85.1207 60.6837 85.1207C61.3403 85.1207 62.0042 85.1645 62.6607 85.2592C63.3246 85.3467 63.9812 85.478 64.6451 85.6384C64.9697 85.7259 65.2279 85.7988 65.4197 85.8425C65.6188 85.8863 65.7811 85.93 65.9139 85.981C66.0467 86.0248 66.1795 86.0758 66.3049 86.1268C66.4229 86.1779 66.5778 86.2362 66.7623 86.3018L66.8213 85.9227L67.1606 82.4231C66.8877 82.3794 66.5262 82.3357 66.3123 82.2846C65.7442 82.1607 65.1172 82.044 64.4312 81.9347C63.7451 81.8472 63.0074 81.7743 62.2255 81.7159C61.4435 81.6649 60.6026 81.6357 59.7174 81.6357C55.7929 81.6357 52.6798 82.5106 50.393 84.2604C48.084 86.0248 46.771 88.562 46.4538 91.8574C46.1587 94.9049 47.0439 97.2525 49.1094 98.9148C51.175 100.57 54.1626 101.401 58.0649 101.401C59.7837 101.401 61.3993 101.292 62.9189 101.073C63.6787 100.964 64.4017 100.832 65.0951 100.665C65.191 100.643 65.2869 100.621 65.3828 100.599L65.4713 99.9209L65.7811 96.7786Z" fill="url(#paint3_linear_4171_2424)"/>
<path d="M74.744 101.044L76.2857 85.0331H83.6257L82.0766 101.044H88.2805L90.1247 81.9637C83.5446 81.9637 76.9644 81.9637 70.3843 81.9637L68.54 101.044H74.744Z" fill="white"/>
<path d="M105.742 87.8541C105.646 88.8092 105.218 89.5018 104.444 89.932C104.06 90.1507 103.588 90.3184 103.042 90.4423C102.489 90.5662 101.862 90.61 101.153 90.5808L98.8961 90.5006L99.4125 85.1492L101.869 85.0982C102.533 85.0617 103.116 85.1055 103.617 85.2367C104.119 85.3607 104.539 85.5429 104.879 85.7762C105.543 86.221 105.83 86.9136 105.742 87.8541ZM111.562 87.7447C111.761 85.6523 111.068 84.165 109.467 83.2828C107.726 82.3277 106.089 81.9559 103.935 81.9559H93.6733L91.8291 101.036H97.8781L98.5937 93.6284L102.393 93.6794C103.794 93.7158 105.048 93.6065 106.14 93.344C107.232 93.0815 108.169 92.717 108.943 92.2504C110.493 91.288 111.37 89.7788 111.562 87.7447Z" fill="white"/>
<path d="M130.115 91.288C129.753 95.1448 126.884 97.2008 123.631 97.2008C120.4 97.2008 117.84 95.1886 118.201 91.288C118.563 87.4093 121.403 85.5138 124.678 85.5138C127.887 85.5138 130.484 87.4166 130.115 91.288ZM133.582 83.8806C131.76 82.2402 128.935 81.4236 125.099 81.4236C121.263 81.4236 118.282 82.2402 116.151 83.8806C111.983 87.0302 110.832 95.2177 114.756 98.7173C116.608 100.358 119.441 101.174 123.24 101.174C127.039 101.174 130.026 100.358 132.188 98.7173C136.319 95.5604 137.529 87.3656 133.582 83.8806Z" fill="white"/>
<defs>
<linearGradient id="paint0_linear_4171_2424" x1="48.5342" y1="33.1668" x2="87.0266" y2="33.1668" gradientUnits="userSpaceOnUse">
<stop stop-color="#FFA142"/>
<stop offset="1" stop-color="#FC7830"/>
</linearGradient>
<linearGradient id="paint1_linear_4171_2424" x1="0.311523" y1="91.5036" x2="25.2379" y2="91.5036" gradientUnits="userSpaceOnUse">
<stop stop-color="#FFA142"/>
<stop offset="1" stop-color="#FC7830"/>
</linearGradient>
<linearGradient id="paint2_linear_4171_2424" x1="26.2783" y1="91.4958" x2="46.0447" y2="91.4958" gradientUnits="userSpaceOnUse">
<stop stop-color="#FFA142"/>
<stop offset="1" stop-color="#FC7830"/>
</linearGradient>
<linearGradient id="paint3_linear_4171_2424" x1="46.3984" y1="91.5183" x2="67.1606" y2="91.5183" gradientUnits="userSpaceOnUse">
<stop stop-color="#FFA142"/>
<stop offset="1" stop-color="#FC7830"/>
</linearGradient>
</defs>
</svg>
