<svg width="155" height="110" viewBox="0 0 155 110" fill="none" xmlns="http://www.w3.org/2000/svg">
<g clip-path="url(#clip0_2292_8095)">
<path fill-rule="evenodd" clip-rule="evenodd" d="M102.112 0.771729L119.824 42.7956L85.1235 42.7883L102.112 0.771729Z" fill="white"/>
<path fill-rule="evenodd" clip-rule="evenodd" d="M48.5344 22.8851L87.0269 6.90381L64.166 59.8346L48.5344 22.8851Z" fill="#2E60FD"/>
<path fill-rule="evenodd" clip-rule="evenodd" d="M124.973 53.8268L71.0708 76.5375L80.4837 53.6956L124.973 53.8268Z" fill="white"/>
<path d="M13.9961 88.385L9.91668 95.1654H13.3027H13.3986H16.7845L13.9961 88.385ZM0.312012 101.246L12.056 82.166H14.542H14.6379H17.1239L25.2384 101.246H19.2558L18.0238 98.2202H13.1182H13.0223H8.11673L6.3094 101.246H0.312012Z" fill="#2E60FD"/>
<path d="M40.1913 88.0564C40.0954 89.0115 39.6676 89.7041 38.893 90.1343C38.5094 90.353 38.0373 90.5207 37.4914 90.6446C36.9381 90.7686 36.3111 90.8123 35.6029 90.7832L33.3456 90.703L33.862 85.3516L36.3185 85.3005C36.9824 85.2641 37.5652 85.3078 38.0668 85.439C38.5684 85.563 38.9889 85.7453 39.3282 85.9786C39.9921 86.4233 40.2798 87.1159 40.1913 88.0564ZM46.0117 87.9471C46.2108 85.8546 45.5174 84.3673 43.9166 83.4851C42.1757 82.53 40.8257 82.1582 38.6643 82.1582H28.1228L26.2786 101.238H32.3276L33.0431 93.8307L36.8422 93.8817C38.2438 93.9182 39.4979 93.8088 40.5897 93.5463C41.6814 93.2839 42.6183 92.9193 43.3929 92.4527C44.942 91.4904 45.8125 89.9812 46.0117 87.9471Z" fill="#2E60FD"/>
<path d="M65.7816 96.981C65.2505 97.1195 64.5792 97.2581 63.9817 97.4039C62.5063 97.7611 61.0235 97.9434 59.526 97.9434C57.2466 97.9434 55.4688 97.3966 54.1852 96.2957C52.9016 95.2167 52.3484 93.7439 52.5254 91.8921C52.7246 89.7996 53.5508 88.1884 54.9967 87.051C56.4646 85.8991 58.3605 85.3231 60.6842 85.3231C61.3408 85.3231 62.0047 85.3669 62.6612 85.4616C63.3251 85.5491 63.9817 85.6804 64.6456 85.8408C64.9702 85.9282 65.2284 86.0012 65.4202 86.0449C65.6193 86.0886 65.7816 86.1324 65.9144 86.1834C66.0472 86.2272 66.18 86.2782 66.3054 86.3292C66.4234 86.3803 66.5783 86.4386 66.7627 86.5042L66.8218 86.1251L67.1611 82.6255C66.8881 82.5818 66.5267 82.538 66.3128 82.487C65.7447 82.3631 65.1177 82.2464 64.4317 82.1371C63.7456 82.0496 63.0079 81.9767 62.226 81.9183C61.444 81.8673 60.6031 81.8381 59.7178 81.8381C55.7934 81.8381 52.6803 82.713 50.3935 84.4628C48.0845 86.2272 46.7715 88.7643 46.4543 92.0598C46.1592 95.1073 47.0444 97.4549 49.1099 99.1172C51.1754 100.772 54.1631 101.603 58.0654 101.603C59.7842 101.603 61.3998 101.494 62.9194 101.275C63.6792 101.166 64.4021 101.035 65.0956 100.867C65.1915 100.845 65.2874 100.823 65.3833 100.801L65.4718 100.123L65.7816 96.981Z" fill="#2E60FD"/>
<path d="M74.7445 101.246L76.2862 85.2354H83.6262L82.0771 101.246H88.281L90.1252 82.166C83.5451 82.166 76.9649 82.166 70.3847 82.166L68.5405 101.246H74.7445Z" fill="white"/>
<path d="M105.742 88.0564C105.646 89.0115 105.218 89.7041 104.444 90.1343C104.06 90.353 103.588 90.5207 103.042 90.6446C102.489 90.7686 101.862 90.8123 101.153 90.7832L98.8961 90.703L99.4125 85.3516L101.869 85.3005C102.533 85.2641 103.116 85.3078 103.617 85.439C104.119 85.563 104.539 85.7453 104.879 85.9786C105.543 86.4233 105.83 87.1159 105.742 88.0564ZM111.562 87.9471C111.761 85.8546 111.068 84.3673 109.467 83.4851C107.726 82.53 106.089 82.1582 103.935 82.1582H93.6733L91.8291 101.238H97.8781L98.5937 93.8307L102.393 93.8817C103.794 93.9182 105.048 93.8088 106.14 93.5463C107.232 93.2839 108.169 92.9193 108.943 92.4527C110.493 91.4904 111.37 89.9812 111.562 87.9471Z" fill="white"/>
<path d="M130.115 91.4904C129.754 95.3472 126.884 97.4032 123.631 97.4032C120.4 97.4032 117.84 95.3909 118.202 91.4904C118.563 87.6117 121.403 85.7161 124.678 85.7161C127.887 85.7161 130.484 87.619 130.115 91.4904ZM133.582 84.083C131.76 82.4425 128.935 81.626 125.099 81.626C121.263 81.626 118.283 82.4425 116.151 84.083C111.983 87.2326 110.832 95.4201 114.757 98.9196C116.608 100.56 119.441 101.377 123.24 101.377C127.039 101.377 130.027 100.56 132.188 98.9196C136.319 95.7627 137.529 87.5679 133.582 84.083Z" fill="white"/>
</g>
<defs>
<clipPath id="clip0_2292_8095">
<rect width="155" height="109" fill="white" transform="translate(0 0.202393)"/>
</clipPath>
</defs>
</svg>
